<svg width="976" height="166" viewBox="0 0 976 166" fill="none" xmlns="http://www.w3.org/2000/svg">
<g clip-path="url(#clip0_1772_7630)">
<path d="M262.641 87.2259C265.16 90.2415 266.427 93.9419 266.427 98.3271C266.427 104.22 264.496 108.951 260.626 112.52C256.757 116.089 251.517 117.874 244.9 117.874H221.503V48.1398H240.968C247.454 48.1398 252.569 49.7583 256.3 53.0022C260.038 56.2461 261.9 60.5483 261.9 65.9156C261.9 72.9844 258.723 78.1304 252.369 81.3329C256.695 82.2528 260.114 84.2171 262.641 87.2259ZM228.875 79.5622H241.556C245.488 79.5622 248.686 78.3034 251.136 75.7788C253.594 73.2611 254.826 70.1624 254.826 66.4966C254.826 62.8308 253.566 60.0157 251.04 57.8508C248.513 55.6928 244.997 54.6069 240.477 54.6069H228.875V79.5553V79.5622ZM255.117 107.748C257.74 105.327 259.048 102.083 259.048 98.0228C259.048 93.9627 257.837 91.1822 255.414 89.0864C252.992 86.9907 249.676 85.9463 245.488 85.9463H228.875V111.386H244.208C248.859 111.386 252.493 110.175 255.117 107.755V107.748Z" fill="white"/>
<path d="M289.525 48.1329H327.763V54.8144H296.897V79.5623H326.877V86.14H296.897V111.185H328.545V117.867H289.519V48.1329H289.525Z" fill="white"/>
<path d="M375.822 89.972V117.867H368.547V89.972L343.677 48.1331H351.935L372.479 82.7026L392.927 48.1331H400.693L375.822 89.972Z" fill="white"/>
<path d="M430.229 114.236C424.692 111.158 420.352 106.883 417.202 101.419C414.06 95.9549 412.481 89.8129 412.481 83C412.481 76.187 414.053 70.052 417.202 64.5809C420.345 59.1167 424.685 54.8422 430.229 51.7643C435.767 48.6864 441.976 47.1509 448.856 47.1509C455.737 47.1509 461.849 48.6933 467.387 51.7643C472.924 54.8422 477.264 59.1167 480.414 64.5809C483.556 70.052 485.135 76.1525 485.135 82.8962C485.135 89.64 483.563 95.8442 480.414 101.315C477.271 106.786 472.924 111.075 467.387 114.18C461.849 117.293 455.64 118.849 448.76 118.849C441.879 118.849 435.767 117.314 430.229 114.236ZM463.6 108.045C467.989 105.555 471.429 102.118 473.921 97.7325C476.413 93.3473 477.659 88.4365 477.659 83C477.659 77.5635 476.413 72.6388 473.921 68.219C471.429 63.7993 467.989 60.3479 463.6 57.8579C459.212 55.3679 454.297 54.1229 448.856 54.1229C443.416 54.1229 438.404 55.3679 434.016 57.8579C429.627 60.3479 426.187 63.7993 423.695 68.219C421.203 72.6388 419.957 77.5635 419.957 83C419.957 88.4365 421.203 93.3473 423.695 97.7325C426.187 102.118 429.627 105.555 434.016 108.045C438.404 110.535 443.353 111.78 448.856 111.78C454.359 111.78 459.212 110.535 463.6 108.045Z" fill="white"/>
<path d="M565.042 48.1329V117.867H558.065L516.291 59.8221V117.867H509.016V48.1329H515.993L557.767 106.178V48.1329H565.042Z" fill="white"/>
<path d="M633.451 52.4074C638.823 55.257 642.969 59.2687 645.883 64.4424C648.797 69.616 650.258 75.6059 650.258 82.4188C650.258 89.2317 648.797 95.6988 645.883 101.032C642.969 106.371 638.823 110.507 633.451 113.454C628.08 116.4 621.788 117.874 614.582 117.874H592.563V48.1398H614.582C621.788 48.1398 628.08 49.5646 633.451 52.4143V52.4074ZM629.471 107.658C633.763 105.299 637.058 101.979 639.349 97.6908C641.64 93.4024 642.789 88.3464 642.789 82.5156C642.789 76.6849 641.64 72.0714 639.349 67.8799C637.058 63.6884 633.763 60.4653 629.471 58.2035C625.179 55.9418 620.119 54.8144 614.284 54.8144H599.935V111.192H614.187C620.085 111.192 625.179 110.016 629.471 107.658Z" fill="white"/>
<path d="M751.894 111.192V117.874H703.925V114.042L741.477 54.8144H704.908V48.1329H751.5V51.8679L714.149 111.192H751.894Z" fill="white"/>
<path d="M775.484 48.1329H813.722V54.8144H782.856V79.5623H812.835V86.14H782.856V111.185H814.504V117.867H775.478V48.1329H775.484Z" fill="white"/>
<path d="M879.473 117.867L860.403 88.6993H846.94V117.867H839.568V48.1331H859.621C866.37 48.1331 871.727 49.9314 875.694 53.535C879.66 57.1386 881.64 61.9802 881.64 68.0738C881.64 72.5904 880.394 76.5675 877.902 80.0051C875.41 83.4426 872.004 85.8842 867.678 87.3229L888.222 117.867H879.473ZM869.692 78.9261C872.676 76.6021 874.164 73.0469 874.164 68.2675C874.164 63.4881 872.703 60.1819 869.789 57.9547C866.875 55.7276 863.255 54.614 858.929 54.614H846.94V82.4121H858.638C863.026 82.4121 866.716 81.2501 869.699 78.9261H869.692Z" fill="white"/>
<path d="M921.102 114.236C915.564 111.158 911.224 106.883 908.075 101.419C904.932 95.9549 903.354 89.8129 903.354 83C903.354 76.187 904.925 70.052 908.075 64.5809C911.217 59.1167 915.557 54.8422 921.102 51.7643C926.639 48.6864 932.849 47.1509 939.729 47.1509C946.609 47.1509 952.722 48.6933 958.259 51.7643C963.797 54.8422 968.137 59.1167 971.286 64.5809C974.429 70.052 976.007 76.1525 976.007 82.8962C976.007 89.64 974.436 95.8442 971.286 101.315C968.144 106.786 963.797 111.075 958.259 114.18C952.722 117.293 946.513 118.849 939.632 118.849C932.752 118.849 926.639 117.314 921.102 114.236ZM954.473 108.045C958.861 105.555 962.302 102.118 964.794 97.7325C967.285 93.3473 968.531 88.4365 968.531 83C968.531 77.5635 967.285 72.6388 964.794 68.219C962.302 63.7993 958.861 60.3479 954.473 57.8579C950.084 55.3679 945.17 54.1229 939.729 54.1229C934.288 54.1229 929.277 55.3679 924.888 57.8579C920.5 60.3479 917.06 63.7993 914.568 68.219C912.076 72.6388 910.83 77.5635 910.83 83C910.83 88.4365 912.076 93.3473 914.568 97.7325C917.06 102.118 920.5 105.555 924.888 108.045C929.277 110.535 934.226 111.78 939.729 111.78C945.232 111.78 950.084 110.535 954.473 108.045Z" fill="white"/>
<rect x="3.46094" width="159.898" height="159.775" fill="url(#paint0_radial_1772_7630)"/>
<path d="M110.766 43.3676C103.055 40.8914 93.4608 39.425 83.064 39.425C72.6672 39.425 63.0664 40.8914 55.3622 43.3676C34.8593 49.9522 20.7661 63.6334 20.7661 79.4449C20.7661 101.682 48.6548 119.721 83.0709 119.721C117.487 119.721 145.362 101.689 145.362 79.4449C145.362 63.6334 131.269 49.9591 110.766 43.3676ZM83.064 102.401C77.9279 102.401 73.7331 92.3168 73.4909 79.6385C76.5781 79.9152 79.783 80.0674 83.064 80.0674C86.345 80.0674 89.543 79.9152 92.6371 79.6385C92.3879 92.3168 88.2001 102.401 83.064 102.401ZM74.1346 69.7131C75.5329 60.8183 79.0008 54.5103 83.064 54.5103C87.1272 54.5103 90.5882 60.8114 91.9864 69.7131C89.1346 69.969 86.1443 70.1143 83.064 70.1143C79.9837 70.1143 76.9934 69.969 74.1346 69.7131ZM97.441 69.0422C95.3574 55.0775 89.7091 45.0621 83.064 45.0621C76.4189 45.0621 70.7636 55.0705 68.6801 69.0422C56.0267 67.071 47.1804 62.5751 47.1804 57.3392C47.1804 50.2842 63.2463 44.5711 83.064 44.5711C102.882 44.5711 118.941 50.2911 118.941 57.3392C118.941 62.5751 110.094 67.064 97.441 69.0422ZM29.8547 77.9716C29.8547 71.1518 32.4781 64.7677 37.0605 59.269C37.0051 59.6494 36.9774 60.0367 36.9774 60.424C36.9774 69.0007 49.8731 76.2909 67.8425 78.9676C67.8287 79.6178 67.8148 80.268 67.8148 80.9181C67.8148 96.868 72.2449 110.369 78.364 115.031C51.1744 113.371 29.8478 97.4144 29.8478 77.9716M87.7502 115.031C93.8692 110.376 98.2924 96.868 98.2924 80.9181C98.2924 80.261 98.2854 79.6109 98.2716 78.9676C116.241 76.2909 129.137 68.9938 129.137 60.424C129.137 60.0367 129.109 59.6563 129.054 59.269C133.636 64.7677 136.259 71.1518 136.259 77.9716C136.259 97.4144 114.933 113.371 87.7502 115.031Z" fill="white"/>
</g>
<defs>
<radialGradient id="paint0_radial_1772_7630" cx="0" cy="0" r="1" gradientUnits="userSpaceOnUse" gradientTransform="translate(83.4098 326.651) rotate(-90) scale(326.651 220.512)">
<stop offset="0.561273" stop-color="#00C7FD"/>
<stop offset="0.855482" stop-color="#0046D2"/>
<stop offset="0.982218" stop-color="#001E5A"/>
</radialGradient>
<clipPath id="clip0_1772_7630">
<rect width="976" height="166" fill="white"/>
</clipPath>
</defs>
</svg>
