<?xml version="1.0" encoding="utf-8"?>
<!-- Generator: Adobe Illustrator 27.9.5, SVG Export Plug-In . SVG Version: 9.03 Build 54986)  -->
<svg version="1.1" id="Layer_1" xmlns="http://www.w3.org/2000/svg" xmlns:xlink="http://www.w3.org/1999/xlink" x="0px" y="0px"
	 viewBox="0 0 32 32" style="enable-background:new 0 0 32 32;" xml:space="preserve">
<style type="text/css">
	.st0{fill:#FFFFFF;}
	.st1{fill:#E10A1D;}
</style>
<path d="M21.5,27.4h-13c-1.1,0-2.1-0.9-2.1-2.1V7.1C6.4,6,7.3,5,8.4,5h13c1.1,0,2.1,0.9,2.1,2.1v18.2C23.5,26.5,22.6,27.4,21.5,27.4
	z M8.4,6.6c-0.3,0-0.5,0.2-0.5,0.5v18.2c0,0.3,0.2,0.5,0.5,0.5h13c0.3,0,0.5-0.2,0.5-0.5V7.1c0-0.3-0.2-0.5-0.5-0.5H8.4z"/>
<path d="M10.7,21.9L10.7,21.9c0.6,0,1,0.5,1,1l0,0c0,0.6-0.5,1-1,1l0,0c-0.6,0-1-0.5-1-1l0,0C9.7,22.4,10.2,21.9,10.7,21.9z"/>
<path d="M14.8,21.9L14.8,21.9c0.6,0,1,0.5,1,1l0,0c0,0.6-0.5,1-1,1l0,0c-0.6,0-1-0.5-1-1l0,0C13.8,22.4,14.2,21.9,14.8,21.9z"/>
<path d="M10.7,18.3L10.7,18.3c0.6,0,1,0.5,1,1l0,0c0,0.6-0.5,1-1,1l0,0c-0.6,0-1-0.5-1-1l0,0C9.7,18.7,10.2,18.3,10.7,18.3z"/>
<path d="M10.7,14.2L10.7,14.2c0.6,0,1,0.5,1,1l0,0c0,0.6-0.5,1-1,1l0,0c-0.6,0-1-0.5-1-1l0,0C9.7,14.7,10.2,14.2,10.7,14.2z"/>
<path d="M14.8,14.2L14.8,14.2c0.6,0,1,0.5,1,1l0,0c0,0.6-0.5,1-1,1l0,0c-0.6,0-1-0.5-1-1l0,0C13.8,14.7,14.2,14.2,14.8,14.2z"/>
<rect x="7.3" y="10.9" width="15.4" height="1.6"/>
<g>
	<path class="st0" d="M15.8,19.1l3.9-3.9H28V23h-8.3L15.8,19.1z"/>
	<path d="M28.7,23.8h-9.4l-4.7-4.7l4.7-4.7h9.4V23.8z M20,22.2h7.2V16H20l-3.1,3.1L20,22.2z"/>
</g>
<rect x="22" y="17.5" class="st1" width="3.1" height="3.1"/>
</svg>
