<?xml version="1.0" encoding="utf-8"?>
<!-- Generator: Adobe Illustrator 26.0.3, SVG Export Plug-In . SVG Version: 6.00 Build 0)  -->
<svg version="1.1" id="Layer_1" xmlns="http://www.w3.org/2000/svg" xmlns:xlink="http://www.w3.org/1999/xlink" x="0px" y="0px"
	 viewBox="0 0 154 47" style="enable-background:new 0 0 154 47;" xml:space="preserve">
<style type="text/css">
	.st0{fill:#1C1B1A;}
	.st1{fill:#0081C8;}
	.st2{fill:#EE334E;}
	.st3{fill:#00A651;}
	.st4{fill:#FCB131;}
	.st5{fill:#FFFFFF;}
	.st6{fill:#C42032;}
	.st7{fill:#152C53;}
	.st8{fill:#EB0A1E;}
	.st9{fill:none;stroke:#717073;stroke-width:0.6717;}
</style>
<path class="st0" d="M39.902,42.681l1.052-2.758l1.05,2.758H39.902z M42.045,38.357h-2.184l-3.052,7.478h1.892l0.695-1.825h3.113
	l0.695,1.825h1.891L42.045,38.357z M26.641,44.535c-1.232,0-2.23-1.112-2.23-2.484c0-1.372,0.997-2.485,2.23-2.485
	c1.23,0,2.229,1.113,2.229,2.485C28.87,43.423,27.871,44.535,26.641,44.535 M26.641,38.101c-2.182,0-3.95,1.769-3.95,3.95
	c0,2.181,1.769,3.949,3.95,3.949c2.18,0,3.95-1.768,3.95-3.949C30.591,39.869,28.821,38.101,26.641,38.101 M11.055,44.535
	c-1.23,0-2.229-1.112-2.229-2.484c0-1.372,0.998-2.485,2.229-2.485c1.232,0,2.23,1.113,2.23,2.485
	C13.286,43.423,12.287,44.535,11.055,44.535 M11.055,38.101c-2.181,0-3.948,1.769-3.948,3.95c0,2.181,1.767,3.949,3.948,3.949
	c2.181,0,3.95-1.768,3.95-3.949C15.005,39.869,13.237,38.101,11.055,38.101 M20.818,38.357l-1.935,3.026l-1.937-3.026h-1.893
	l2.996,4.69v2.789h1.666v-2.788l2.996-4.69H20.818z M37.207,38.357h-6.393v1.434h2.368v6.044h1.668v-6.044h2.357V38.357z
	 M0.365,39.791h2.369v6.044h1.667v-6.044h2.358v-1.434H0.365V39.791z"/>
<g>
	<g>
		<g>
			<path class="st1" d="M81.554,32.978c0-2.772-2.246-5.019-5.018-5.019c-2.772,0-5.019,2.247-5.019,5.019
				c0,2.772,2.247,5.019,5.019,5.019c0.146,0,0.291-0.007,0.434-0.019c-0.01-0.132-0.015-0.266-0.015-0.4
				c0-0.149,0.007-0.296,0.019-0.441c-0.144,0.015-0.29,0.023-0.437,0.023c-2.311,0-4.183-1.872-4.183-4.182
				c0-2.31,1.873-4.182,4.183-4.182c2.309,0,4.182,1.873,4.182,4.182c0,1.856-1.208,3.429-2.881,3.977
				c-0.031,0.203-0.046,0.412-0.046,0.624c0,0.087,0.003,0.173,0.008,0.258C79.958,37.277,81.554,35.314,81.554,32.978"/>
			<path class="st2" d="M103.303,32.978c0,2.772-2.247,5.019-5.019,5.019c-2.624,0-4.776-2.012-5-4.578
				c0.299,0.031,0.587,0.094,0.864,0.184c0.302,2.014,2.039,3.558,4.136,3.558c2.31,0,4.181-1.872,4.181-4.182
				c0-2.31-1.872-4.182-4.181-4.182c-2.223,0-4.042,1.734-4.174,3.924c-0.268-0.069-0.546-0.117-0.829-0.142
				c0.204-2.584,2.366-4.619,5.004-4.619C101.056,27.959,103.303,30.206,103.303,32.978"/>
			<path class="st3" d="M97.022,37.837c-0.133,2.189-1.951,3.924-4.176,3.924c-2.31,0-4.181-1.873-4.181-4.182
				c0-1.856,1.209-3.429,2.881-3.976c0.03-0.204,0.045-0.412,0.045-0.625c0-0.086-0.002-0.172-0.007-0.257
				c-2.16,0.56-3.757,2.523-3.757,4.859c0,2.771,2.247,5.019,5.019,5.019c2.638,0,4.8-2.034,5.004-4.619
				C97.566,37.955,97.289,37.907,97.022,37.837 M92.846,33.396c2.098,0,3.836,1.544,4.137,3.558c0.276,0.09,0.566,0.153,0.863,0.183
				c-0.223-2.565-2.375-4.578-5-4.578c-0.145,0-0.29,0.006-0.434,0.019c0.011,0.132,0.015,0.265,0.015,0.399
				c0,0.149-0.006,0.296-0.017,0.442C92.553,33.404,92.698,33.396,92.846,33.396"/>
			<path class="st4" d="M86.976,37.978c-0.204,2.585-2.366,4.62-5.003,4.62c-2.772,0-5.019-2.247-5.019-5.019
				c0-2.335,1.596-4.299,3.756-4.859c0.006,0.086,0.008,0.171,0.008,0.258c0,0.212-0.016,0.421-0.046,0.625
				c-1.673,0.547-2.881,2.12-2.881,3.976c0,2.31,1.873,4.182,4.182,4.182c2.223,0,4.041-1.735,4.175-3.924
				C86.415,37.907,86.692,37.955,86.976,37.978 M81.535,33.419c0.013-0.146,0.019-0.292,0.019-0.441c0-0.134-0.005-0.267-0.015-0.4
				c0.143-0.012,0.287-0.018,0.434-0.018c2.623,0,4.776,2.013,5,4.578c-0.298-0.031-0.587-0.093-0.864-0.183
				c-0.302-2.015-2.039-3.559-4.136-3.559C81.824,33.396,81.679,33.404,81.535,33.419"/>
			<path d="M87.409,37.161c-2.097,0-3.834-1.545-4.136-3.558c-0.276-0.09-0.565-0.153-0.864-0.184
				c0.223,2.566,2.377,4.578,4.999,4.578c0.147,0,0.291-0.006,0.434-0.019c-0.01-0.131-0.016-0.265-0.016-0.399
				c0-0.149,0.007-0.296,0.02-0.441C87.703,37.153,87.557,37.161,87.409,37.161 M87.409,27.959c-2.637,0-4.799,2.034-5.003,4.619
				c0.283,0.024,0.561,0.072,0.829,0.142c0.133-2.19,1.952-3.924,4.174-3.924c2.31,0,4.183,1.873,4.183,4.182
				c0,1.856-1.209,3.429-2.881,3.976c-0.031,0.204-0.047,0.413-0.047,0.625c0,0.087,0.003,0.173,0.008,0.258
				c2.161-0.56,3.756-2.523,3.756-4.859C92.428,30.206,90.182,27.959,87.409,27.959"/>
		</g>
		<g>
			<polygon class="st5" points="105.143,1.635 69.677,1.635 69.069,1.635 69.069,2.243 69.069,24.841 69.069,25.449 69.677,25.449 
				105.143,25.449 105.751,25.449 105.751,24.841 105.751,2.243 105.751,1.635 			"/>
			<rect x="84.405" y="2.243" class="st6" width="20.737" height="1.738"/>
			<rect x="84.405" y="5.719" class="st6" width="20.737" height="1.738"/>
			<rect x="84.405" y="9.179" class="st6" width="20.737" height="1.738"/>
			<rect x="84.405" y="12.66" class="st6" width="20.737" height="1.735"/>
			<rect x="69.677" y="16.14" class="st6" width="35.466" height="1.737"/>
			<rect x="69.677" y="19.598" class="st6" width="35.466" height="1.737"/>
			<rect x="69.677" y="23.106" class="st6" width="35.466" height="1.736"/>
			<rect x="69.677" y="2.243" class="st7" width="14.728" height="12.153"/>
			<polygon class="st5" points="71.951,4.458 72.551,4.458 72.07,4.826 72.255,5.416 71.777,5.053 71.297,5.416 71.486,4.826 
				71.001,4.458 71.593,4.458 71.777,3.885 			"/>
			<polygon class="st5" points="71.954,8.125 72.553,8.125 72.07,8.494 72.256,9.084 71.776,8.721 71.297,9.084 71.488,8.494 
				71.001,8.125 71.597,8.125 71.776,7.548 			"/>
			<polygon class="st5" points="71.951,11.788 72.551,11.788 72.07,12.156 72.255,12.746 71.777,12.384 71.297,12.746 
				71.486,12.156 71.001,11.788 71.593,11.788 71.777,11.216 			"/>
			<polygon class="st5" points="77.247,4.458 77.849,4.458 77.367,4.826 77.552,5.416 77.074,5.053 76.595,5.416 76.784,4.826 
				76.299,4.458 76.89,4.458 77.074,3.885 			"/>
			<polygon class="st5" points="77.251,8.125 77.85,8.125 77.367,8.494 77.554,9.084 77.073,8.721 76.595,9.084 76.785,8.494 
				76.299,8.125 76.895,8.125 77.073,7.548 			"/>
			<polygon class="st5" points="77.247,11.788 77.849,11.788 77.367,12.156 77.552,12.746 77.074,12.384 76.595,12.746 
				76.784,12.156 76.299,11.788 76.89,11.788 77.074,11.216 			"/>
			<polygon class="st5" points="82.551,4.458 83.147,4.458 82.667,4.825 82.858,5.416 82.374,5.053 81.896,5.416 82.085,4.825 
				81.596,4.458 82.194,4.458 82.374,3.885 			"/>
			<polygon class="st5" points="82.547,8.125 83.147,8.125 82.665,8.494 82.856,9.083 82.371,8.721 81.895,9.083 82.086,8.494 
				81.596,8.125 82.195,8.125 82.371,7.548 			"/>
			<polygon class="st5" points="82.551,11.787 83.147,11.787 82.667,12.157 82.858,12.747 82.374,12.384 81.896,12.747 
				82.085,12.157 81.596,11.787 82.194,11.787 82.374,11.212 			"/>
			<polygon class="st5" points="74.603,6.293 75.201,6.293 74.718,6.663 74.905,7.252 74.425,6.89 73.946,7.252 74.137,6.663 
				73.65,6.293 74.245,6.293 74.425,5.718 			"/>
			<polygon class="st5" points="74.599,9.957 75.2,9.957 74.718,10.325 74.904,10.915 74.426,10.552 73.946,10.915 74.135,10.325 
				73.649,9.957 74.241,9.957 74.426,9.384 			"/>
			<polygon class="st5" points="79.901,6.293 80.499,6.293 80.016,6.663 80.203,7.252 79.723,6.89 79.243,7.252 79.434,6.663 
				78.947,6.293 79.543,6.293 79.723,5.718 			"/>
			<polygon class="st5" points="79.896,9.957 80.498,9.957 80.016,10.325 80.201,10.915 79.724,10.552 79.244,10.915 79.432,10.325 
				78.947,9.957 79.539,9.957 79.724,9.384 			"/>
		</g>
	</g>
	<g>
		<g>
			<polygon class="st5" points="153.204,1.635 117.737,1.635 117.129,1.635 117.129,2.243 117.129,24.842 117.129,25.449 
				117.737,25.449 153.204,25.449 153.811,25.449 153.811,24.842 153.811,2.243 153.811,1.635 			"/>
			<rect x="132.465" y="2.243" class="st6" width="20.738" height="1.738"/>
			<rect x="132.465" y="5.719" class="st6" width="20.738" height="1.738"/>
			<rect x="132.465" y="9.179" class="st6" width="20.738" height="1.738"/>
			<rect x="132.465" y="12.66" class="st6" width="20.738" height="1.735"/>
			<rect x="117.737" y="16.14" class="st6" width="35.466" height="1.737"/>
			<rect x="117.737" y="19.599" class="st6" width="35.466" height="1.737"/>
			<rect x="117.737" y="23.106" class="st6" width="35.466" height="1.736"/>
			<rect x="117.737" y="2.243" class="st7" width="14.728" height="12.153"/>
			<polygon class="st5" points="120.011,4.458 120.611,4.458 120.13,4.826 120.315,5.416 119.837,5.053 119.357,5.416 
				119.546,4.826 119.061,4.458 119.653,4.458 119.837,3.885 			"/>
			<polygon class="st5" points="120.014,8.125 120.613,8.125 120.13,8.494 120.316,9.084 119.836,8.721 119.357,9.084 
				119.548,8.494 119.061,8.125 119.657,8.125 119.836,7.548 			"/>
			<polygon class="st5" points="120.011,11.788 120.611,11.788 120.13,12.156 120.315,12.746 119.837,12.384 119.357,12.746 
				119.546,12.156 119.061,11.788 119.653,11.788 119.837,11.216 			"/>
			<polygon class="st5" points="125.308,4.458 125.91,4.458 125.427,4.826 125.613,5.416 125.134,5.053 124.655,5.416 
				124.844,4.826 124.359,4.458 124.95,4.458 125.134,3.885 			"/>
			<polygon class="st5" points="125.311,8.125 125.91,8.125 125.427,8.494 125.614,9.084 125.133,8.721 124.655,9.084 
				124.845,8.494 124.359,8.125 124.955,8.125 125.133,7.548 			"/>
			<polygon class="st5" points="125.308,11.788 125.91,11.788 125.427,12.156 125.613,12.746 125.134,12.384 124.655,12.746 
				124.844,12.156 124.359,11.788 124.95,11.788 125.134,11.216 			"/>
			<polygon class="st5" points="130.612,4.458 131.207,4.458 130.727,4.825 130.918,5.416 130.434,5.053 129.956,5.416 
				130.146,4.825 129.656,4.458 130.254,4.458 130.434,3.885 			"/>
			<polygon class="st5" points="130.607,8.125 131.207,8.125 130.725,8.494 130.916,9.084 130.432,8.721 129.955,9.084 
				130.146,8.494 129.657,8.125 130.255,8.125 130.432,7.548 			"/>
			<polygon class="st5" points="130.612,11.787 131.207,11.787 130.727,12.157 130.918,12.747 130.434,12.384 129.956,12.747 
				130.146,12.157 129.656,11.787 130.254,11.787 130.434,11.212 			"/>
			<polygon class="st5" points="122.663,6.293 123.261,6.293 122.778,6.663 122.966,7.252 122.485,6.89 122.006,7.252 
				122.197,6.663 121.71,6.293 122.306,6.293 122.485,5.718 			"/>
			<polygon class="st5" points="122.659,9.957 123.261,9.957 122.779,10.325 122.964,10.915 122.486,10.552 122.006,10.915 
				122.195,10.325 121.71,9.957 122.301,9.957 122.486,9.384 			"/>
			<polygon class="st5" points="127.961,6.293 128.559,6.293 128.076,6.663 128.263,7.252 127.783,6.89 127.304,7.252 
				127.494,6.663 127.007,6.293 127.603,6.293 127.783,5.718 			"/>
			<polygon class="st5" points="127.956,9.957 128.559,9.957 128.076,10.325 128.261,10.915 127.784,10.552 127.304,10.915 
				127.492,10.325 127.008,9.957 127.599,9.957 127.784,9.384 			"/>
		</g>
		<g>
			<g>
				<path class="st2" d="M134.253,28.107c-1.759-0.405-4.162,0.041-6.431,1.351c-3.551,2.05-5.432,5.439-4.202,7.57
					c0.786,1.361,2.652,1.879,4.823,1.541c-0.993-0.229-1.781-0.728-2.225-1.497c-1.23-2.131,0.651-5.52,4.202-7.57
					C131.702,28.762,133.026,28.298,134.253,28.107"/>
				<path class="st3" d="M134.284,36.512c0.529,1.726,2.116,3.584,4.386,4.894c3.551,2.05,7.427,1.985,8.657-0.146
					c0.786-1.361,0.301-3.237-1.077-4.948c0.298,0.974,0.26,1.907-0.184,2.676c-1.23,2.131-5.106,2.196-8.657,0.146
					C136.127,38.394,135.063,37.479,134.284,36.512"/>
				<path class="st1" d="M131.876,32.331c-1.23,1.321-2.045,3.625-2.045,6.245c0,4.1,1.994,7.424,4.455,7.424
					c1.572,0,2.954-1.357,3.746-3.407c-0.695,0.746-1.522,1.179-2.409,1.179c-2.46,0-4.454-3.324-4.454-7.424
					C131.168,34.868,131.428,33.489,131.876,32.331"/>
			</g>
		</g>
	</g>
</g>
<g>
	<g>
		<rect x="7.737" y="1" class="st8" width="29.907" height="29.907"/>
		<path class="st5" d="M27.678,9.431c-1.388-0.446-3.115-0.71-4.987-0.71c-1.872,0-3.599,0.264-4.988,0.71
			c-3.692,1.187-6.228,3.651-6.228,6.5c0,4.007,5.021,7.256,11.216,7.256c6.193,0,11.214-3.249,11.214-7.256
			C33.906,13.082,31.369,10.618,27.678,9.431 M22.691,20.066c-0.924,0-1.679-1.817-1.724-4.101c0.556,0.05,1.132,0.077,1.724,0.077
			c0.591,0,1.167-0.027,1.723-0.077C24.37,18.249,23.615,20.066,22.691,20.066 M21.084,14.177c0.252-1.603,0.876-2.738,1.607-2.738
			c0.73,0,1.354,1.135,1.606,2.738c-0.513,0.046-1.051,0.072-1.606,0.072C22.136,14.249,21.598,14.224,21.084,14.177 M25.28,14.056
			c-0.375-2.516-1.392-4.32-2.588-4.32c-1.196,0-2.214,1.804-2.589,4.32c-2.278-0.356-3.871-1.165-3.871-2.108
			c0-1.271,2.892-2.301,6.46-2.301c3.567,0,6.459,1.03,6.459,2.301C29.15,12.891,27.558,13.701,25.28,14.056 M13.112,15.665
			c0-1.228,0.473-2.379,1.298-3.37c-0.009,0.069-0.015,0.138-0.015,0.208c0,1.545,2.321,2.859,5.557,3.341
			c-0.003,0.117-0.004,0.234-0.004,0.352c0,2.873,0.797,5.306,1.899,6.145C16.952,22.042,13.112,19.168,13.112,15.665
			 M23.536,22.341c1.101-0.839,1.898-3.272,1.898-6.145c0-0.118-0.001-0.235-0.004-0.352c3.235-0.483,5.556-1.796,5.556-3.341
			c0-0.07-0.006-0.139-0.015-0.208c0.825,0.99,1.298,2.141,1.298,3.37C32.269,19.168,28.43,22.042,23.536,22.341"/>
	</g>
</g>
<line class="st9" x1="57.168" y1="1" x2="57.168" y2="46"/>
<g>
</g>
<g>
</g>
<g>
</g>
<g>
</g>
<g>
</g>
<g>
</g>
<g>
</g>
<g>
</g>
<g>
</g>
<g>
</g>
<g>
</g>
<g>
</g>
<g>
</g>
<g>
</g>
<g>
</g>
</svg>
