<?xml version="1.0" encoding="utf-8"?>
<!-- Generator: Adobe Illustrator 26.0.3, SVG Export Plug-In . SVG Version: 6.00 Build 0)  -->
<svg version="1.1" id="Logo" xmlns="http://www.w3.org/2000/svg" xmlns:xlink="http://www.w3.org/1999/xlink" x="0px" y="0px"
	 width="600px" height="40px" viewBox="0 0 600 40" style="enable-background:new 0 0 600 40;" xml:space="preserve">
<style type="text/css">
	.st0{fill:#FFFFFF;}
	.st1{fill:#EB0A1E;}
</style>
<g>
	<path class="st0" d="M34.553,0.764v37.682h-9.712L9.821,16.262v22.185H0.268V0.764h9.766L25,23.002V0.764H34.553z"/>
	<path class="st0" d="M61.973,29.318H50.562l-2.972,9.129H37.453L50.987,0.764h11.092l13.533,37.682H64.945L61.973,29.318z
		 M59.425,21.463l-3.184-9.819l-3.184,9.819H59.425z"/>
	<path class="st0" d="M99.795,9.468h-9.394v28.978H80.317V9.468h-9.394V0.764h28.872V9.468z"/>
	<path class="st0" d="M102.96,0.764h10.084v37.682H102.96V0.764z"/>
	<path class="st0" d="M116.432,19.605c0-11.888,8.492-19.372,19.902-19.372s19.902,7.536,19.902,19.213
		c0,11.676-8.492,19.531-20.008,19.531C124.977,38.977,116.432,31.494,116.432,19.605z M145.676,19.605
		c0-5.891-3.768-9.872-9.341-9.872c-5.573,0-9.341,3.981-9.341,9.872c0,5.838,3.768,9.871,9.341,9.871
		C141.907,29.477,145.676,25.443,145.676,19.605z"/>
	<path class="st0" d="M193.937,0.764v37.682h-9.712l-15.02-22.185v22.185h-9.553V0.764h9.766l14.967,22.238V0.764H193.937z"/>
	<path class="st0" d="M221.357,29.318h-11.411l-2.972,9.129h-10.137l13.534-37.682h11.092l13.533,37.682h-10.668L221.357,29.318z
		 M218.809,21.463l-3.184-9.819l-3.184,9.819H218.809z"/>
	<path class="st0" d="M261.726,29.477v8.97h-23.83V0.764h10.084v28.712H261.726z"/>
</g>
<g>
	<path class="st1" d="M282.26,38.022c-2.335-0.637-4.388-1.521-6.157-2.654l2.495-9.235c1.698,1.168,3.538,2.132,5.52,2.893
		c1.981,0.761,3.874,1.141,5.679,1.141c2.548,0,3.821-0.831,3.821-2.495c0-0.566-0.178-1.035-0.531-1.407
		c-0.354-0.371-0.929-0.734-1.725-1.088c-0.796-0.353-2.149-0.884-4.06-1.592c-3.503-1.308-6.095-2.821-7.775-4.538
		c-1.681-1.716-2.521-4.025-2.521-6.926c0-2.441,0.584-4.555,1.751-6.342c1.168-1.786,2.795-3.158,4.883-4.113
		c2.087-0.955,4.511-1.433,7.271-1.433c2.158,0,4.343,0.274,6.555,0.823c2.211,0.549,3.971,1.212,5.281,1.99l-2.919,8.333
		c-1.274-0.708-2.725-1.282-4.352-1.725c-1.628-0.442-3.078-0.663-4.352-0.663c-1.168,0-2.105,0.186-2.813,0.557
		c-0.708,0.371-1.062,0.894-1.062,1.566c0,0.814,0.495,1.495,1.486,2.043c0.99,0.549,2.76,1.265,5.307,2.149
		c2.264,0.814,4.095,1.654,5.493,2.521c1.397,0.868,2.476,1.982,3.238,3.344c0.76,1.362,1.141,3.088,1.141,5.175
		c0,3.963-1.292,7.059-3.874,9.288c-2.583,2.229-6.139,3.344-10.668,3.344C286.965,38.977,284.595,38.658,282.26,38.022z"/>
	<path class="st1" d="M327.849,29.318h-11.411l-2.972,9.128h-10.137l13.534-37.682h11.092l13.534,37.682h-10.668L327.849,29.318z
		 M325.302,21.463l-3.185-9.839l-3.184,9.839H325.302z"/>
	<path class="st1" d="M367.601,29.477v8.969h-23.83V0.764h10.084v28.713H367.601z"/>
	<path class="st1" d="M369.988,0.764h24.308v8.757h-14.224v5.891h13.799v8.439h-13.799v5.838h14.701v8.757h-24.785V0.764z"/>
	<path class="st1" d="M403.743,38.022c-2.335-0.637-4.388-1.521-6.157-2.654l2.495-9.235c1.698,1.168,3.538,2.132,5.52,2.893
		c1.981,0.761,3.875,1.141,5.679,1.141c2.548,0,3.821-0.831,3.821-2.495c0-0.566-0.178-1.035-0.531-1.407
		c-0.354-0.371-0.929-0.734-1.725-1.088c-0.796-0.353-2.149-0.884-4.06-1.592c-3.503-1.308-6.095-2.821-7.775-4.538
		c-1.681-1.716-2.521-4.025-2.521-6.926c0-2.441,0.584-4.555,1.751-6.342c1.168-1.786,2.795-3.158,4.883-4.113
		c2.087-0.955,4.511-1.433,7.271-1.433c2.158,0,4.343,0.274,6.555,0.823c2.211,0.549,3.971,1.212,5.281,1.99l-2.919,8.333
		c-1.274-0.708-2.725-1.282-4.352-1.725c-1.628-0.442-3.078-0.663-4.352-0.663c-1.167,0-2.105,0.186-2.813,0.557
		c-0.708,0.371-1.061,0.894-1.061,1.566c0,0.814,0.495,1.495,1.486,2.043c0.99,0.549,2.76,1.265,5.307,2.149
		c2.264,0.814,4.095,1.654,5.493,2.521c1.397,0.868,2.476,1.982,3.238,3.344c0.76,1.362,1.141,3.088,1.141,5.175
		c0,3.963-1.292,7.059-3.875,9.288c-2.583,2.229-6.139,3.344-10.668,3.344C408.448,38.977,406.078,38.658,403.743,38.022z"/>
	<path class="st1" d="M439.991,0.764h24.308v8.757h-14.223v5.891h13.799v8.439h-13.799v5.838h14.701v8.757h-24.785V0.764z"/>
	<path class="st1" d="M503.466,0.764l-13.109,37.682h-11.039L466.208,0.764h10.933l7.749,26.072l7.749-26.072H503.466z"/>
	<path class="st1" d="M505.801,0.764h24.308v8.757h-14.223v5.891h13.799v8.439h-13.799v5.838h14.701v8.757h-24.785V0.764z"/>
	<path class="st1" d="M568.48,0.764v37.682h-9.712l-15.02-22.198v22.198h-9.553V0.764h9.766l14.967,22.251V0.764H568.48z"/>
	<path class="st1" d="M600.006,9.468h-9.394v28.978h-10.084V9.468h-9.394V0.764h28.872V9.468z"/>
</g>
</svg>
